<?xml version="1.0" standalone="no"?>
<!DOCTYPE svg PUBLIC "-//W3C//DTD SVG 20010904//EN"
 "http://www.w3.org/TR/2001/REC-SVG-20010904/DTD/svg10.dtd">
<svg version="1.0" xmlns="http://www.w3.org/2000/svg"
 width="260.000000pt" height="260.000000pt" viewBox="0 0 260.000000 260.000000"
 preserveAspectRatio="xMidYMid meet">
<metadata>
Created by potrace 1.11, written by Peter Selinger 2001-2013
</metadata>
<g transform="translate(0.000000,260.000000) scale(0.100000,-0.100000)"
fill="#000000" stroke="none">
<path d="M541 2318 c0 -128 0 -241 0 -250 -1 -16 -21 -17 -228 -17 -126 0
-236 0 -245 0 -17 -1 -18 -20 -18 -251 l0 -250 28 0 c15 -1 125 -1 245 -1 199
1 217 -1 218 -17 1 -23 1 -431 0 -459 -1 -21 -3 -22 -193 -22 -106 1 -217 0
-245 0 l-53 -1 0 -250 0 -250 33 -1 c17 0 128 -1 245 -1 l212 0 1 -26 c0 -15
0 -127 0 -250 l1 -222 251 2 252 3 2 175 c1 96 2 207 3 246 l0 71 250 1 250 1
1 -42 c0 -23 1 -135 1 -249 l0 -208 253 0 252 0 1 222 c0 123 1 235 1 250 l1
27 193 0 c105 -1 216 0 245 0 l52 1 0 250 0 250 -52 1 c-29 0 -140 0 -245 0
-178 -1 -193 0 -194 16 -1 21 -1 465 0 475 1 3 101 7 224 7 122 0 232 0 245 0
l22 1 0 250 0 250 -32 1 c-18 0 -129 0 -245 0 -159 0 -213 3 -214 12 0 7 -1
119 -1 250 l0 237 -253 0 -252 0 -1 -177 c0 -98 -1 -210 -1 -250 l-1 -71 -250
-1 c-188 0 -250 3 -250 12 -1 7 -1 119 -1 250 l-1 237 -253 0 -254 0 0 -232z
m1010 -781 c1 -16 1 -414 0 -453 l-1 -32 -250 0 c-248 0 -250 0 -251 22 0 24
0 246 1 383 l0 92 250 0 c186 0 250 -3 251 -12z"/>
</g>
</svg>
